<?xml version="1.0" encoding="UTF-8"?>
<!-- Do not edit this file with editors other than draw.io -->
<!DOCTYPE svg PUBLIC "-//W3C//DTD SVG 1.1//EN" "http://www.w3.org/Graphics/SVG/1.1/DTD/svg11.dtd">
<svg xmlns="http://www.w3.org/2000/svg" style="background: #ffffff; background-color: light-dark(#ffffff, var(--ge-dark-color, #121212)); color-scheme: light dark;" xmlns:xlink="http://www.w3.org/1999/xlink" version="1.1" width="331px" height="101px" viewBox="0 0 331 101" content="&lt;mxfile host=&quot;app.diagrams.net&quot; agent=&quot;Mozilla/5.0 (Macintosh; Intel Mac OS X 10_15_7) AppleWebKit/605.1.15 (KHTML, like Gecko) Version/17.6 Safari/605.1.15&quot; version=&quot;29.0.3&quot; scale=&quot;1&quot; border=&quot;0&quot;&gt;&#10;  &lt;diagram name=&quot;Page-1&quot; id=&quot;2OoKJNBHhNmMgpQ0Zp8j&quot;&gt;&#10;    &lt;mxGraphModel dx=&quot;1426&quot; dy=&quot;832&quot; grid=&quot;1&quot; gridSize=&quot;10&quot; guides=&quot;1&quot; tooltips=&quot;1&quot; connect=&quot;1&quot; arrows=&quot;1&quot; fold=&quot;1&quot; page=&quot;1&quot; pageScale=&quot;1&quot; pageWidth=&quot;827&quot; pageHeight=&quot;1169&quot; math=&quot;0&quot; shadow=&quot;0&quot;&gt;&#10;      &lt;root&gt;&#10;        &lt;mxCell id=&quot;0&quot; /&gt;&#10;        &lt;mxCell id=&quot;1&quot; parent=&quot;0&quot; /&gt;&#10;        &lt;mxCell id=&quot;jhy7sgEvdCRnJ9I7-apZ-1&quot; value=&quot;&quot; style=&quot;sketch=0;html=1;aspect=fixed;strokeColor=none;shadow=0;fillColor=#3B8DF1;verticalAlign=top;labelPosition=center;verticalLabelPosition=bottom;shape=mxgraph.gcp2.cloud_server&quot; vertex=&quot;1&quot; parent=&quot;1&quot;&gt;&#10;          &lt;mxGeometry x=&quot;160&quot; y=&quot;310&quot; width=&quot;100&quot; height=&quot;89&quot; as=&quot;geometry&quot; /&gt;&#10;        &lt;/mxCell&gt;&#10;        &lt;mxCell id=&quot;jhy7sgEvdCRnJ9I7-apZ-2&quot; value=&quot;&quot; style=&quot;outlineConnect=0;dashed=0;verticalLabelPosition=bottom;verticalAlign=top;align=center;html=1;shape=mxgraph.aws3.simulator;fillColor=light-dark(#3a8df1, #467fb2);gradientColor=none;&quot; vertex=&quot;1&quot; parent=&quot;1&quot;&gt;&#10;          &lt;mxGeometry x=&quot;400&quot; y=&quot;299&quot; width=&quot;90&quot; height=&quot;100&quot; as=&quot;geometry&quot; /&gt;&#10;        &lt;/mxCell&gt;&#10;        &lt;mxCell id=&quot;jhy7sgEvdCRnJ9I7-apZ-4&quot; value=&quot;&quot; style=&quot;html=1;shadow=0;dashed=0;align=center;verticalAlign=middle;shape=mxgraph.arrows2.twoWayArrow;dy=0.6;dx=35;fillColor=light-dark(#3a8df1, #ededed);strokeColor=none;&quot; vertex=&quot;1&quot; parent=&quot;1&quot;&gt;&#10;          &lt;mxGeometry x=&quot;280&quot; y=&quot;324.5&quot; width=&quot;100&quot; height=&quot;60&quot; as=&quot;geometry&quot; /&gt;&#10;        &lt;/mxCell&gt;&#10;      &lt;/root&gt;&#10;    &lt;/mxGraphModel&gt;&#10;  &lt;/diagram&gt;&#10;&lt;/mxfile&gt;&#10;"><defs/><rect fill="#ffffff" width="100%" height="100%" x="0" y="0" style="fill: light-dark(#ffffff, var(--ge-dark-color, #121212));"/><g><g data-cell-id="0"><g data-cell-id="1"><g data-cell-id="jhy7sgEvdCRnJ9I7-apZ-1"><g transform="translate(0.5,0.5)"><path d="M 86.44 93 C 88.35 93 89.92 91.48 89.92 89.55 C 89.92 87.8 88.79 86.16 86.42 86.16 C 84.19 86.16 82.96 87.83 82.96 89.47 C 82.96 91.59 84.42 93 86.44 93 Z M 64.42 93 C 66.32 93 67.9 91.48 67.9 89.55 C 67.9 87.8 66.77 86.16 64.4 86.16 C 62.17 86.16 60.94 87.83 60.94 89.47 C 60.94 91.59 62.4 93 64.42 93 Z M 40.69 93 C 42.59 93 44.17 91.48 44.17 89.55 C 44.17 87.8 43.04 86.16 40.67 86.16 C 38.44 86.16 37.21 87.83 37.21 89.47 C 37.21 91.59 38.67 93 40.69 93 Z M 15.93 95.54 C 19.24 95.54 22.1 93.37 22.1 89.65 C 22.1 85.99 19.44 83.62 16.39 83.62 C 12 83.62 10.15 86.7 10.15 89.53 C 10.15 93.04 12.78 95.54 15.93 95.54 Z M 25.67 55.66 L 75.8 55.66 C 76.17 54.46 76.24 53.04 75.56 51.46 C 75.09 50.27 74.42 49.34 72.85 48.64 C 73.7 46.43 74.14 43.26 71 40 C 67.95 36.97 64.72 36.73 61.8 37.41 C 60.83 33.58 57.93 30.97 53.86 30.43 C 48.49 29.53 44.96 31.7 42.69 35.06 C 40.98 33.73 38.2 33.31 35.76 34.9 C 32.83 36.98 32.67 39.27 32.84 41.31 C 29.75 41.55 27.21 42.82 25.38 45.95 C 23.2 49.71 24.27 53.75 25.67 55.64 Z M 0.04 76.33 L 16.53 11 L 82.42 11 L 100 76.33 Z M 0 100 L 0 78.02 L 99.93 78.02 L 99.93 100 Z" fill="#3b8df1" stroke="none" pointer-events="all" style="fill: light-dark(rgb(59, 141, 241), rgb(63, 133, 219));"/></g></g><g data-cell-id="jhy7sgEvdCRnJ9I7-apZ-2"><g transform="translate(0.5,0.5)"><path d="M 253.54 59.86 C 247.29 59.86 240.02 54.08 240 44.94 L 240 40.49 C 240 32.28 246.63 26.28 253.08 26 C 252 21.31 252.88 13.98 257.25 8.32 C 260.55 4.08 265.8 0.11 273.56 0 C 278.46 0.02 283.46 1.89 287.34 5.56 C 290.96 9.01 293.25 13.5 294.04 18.3 C 295.87 14.85 299.64 12.65 303.92 13.25 C 306.61 13.69 308.91 15.24 310.4 17.39 C 312.23 20.05 312.65 22.99 312.18 25.02 C 316.08 24.36 318.52 24.95 320.75 25.86 C 327.05 28.7 330 34.89 330 40.22 L 330 44.51 C 330 53.09 323.3 59.86 315.79 59.86 Z M 273.86 100 C 271.6 100 270.59 98.27 270.59 96.72 L 270.59 70.14 C 270.59 67.99 272.28 66.86 273.57 66.86 L 295.96 66.86 C 298.15 66.86 299.14 68.67 299.14 70.01 L 299.14 96.65 C 299.14 98.31 297.95 100 295.9 100 Z" fill="#3a8df1" stroke="none" pointer-events="all" style="fill: light-dark(rgb(58, 141, 241), rgb(70, 127, 178));"/><path d="M 253.54 59.86 C 247.31 59.86 240 54.07 240 44.94 L 240 40.49 C 240 49.55 246.86 55.57 253.65 55.57 L 315.38 55.57 C 323.44 55.57 330 48.87 330 40.22 L 330 44.51 C 330 53.09 323.3 59.86 315.79 59.86 Z M 273.86 100 C 271.62 100 270.59 98.27 270.59 96.72 L 270.59 93.92 C 270.59 95.91 272.16 97.14 273.66 97.14 L 296.03 97.14 C 297.57 97.14 299.14 95.81 299.14 93.83 L 299.14 96.65 C 299.14 98.31 297.95 100 295.9 100 Z" fill-opacity="0.3" fill="#000000" stroke="none" pointer-events="all" style="fill: light-dark(rgb(0, 0, 0), rgb(237, 237, 237));"/><rect x="240" y="0" width="0" height="0" fill="none" stroke="#000000" pointer-events="all" style="stroke: light-dark(rgb(0, 0, 0), rgb(255, 255, 255));"/><path d="M 273.65 52.01 C 272.07 52.01 270.59 50.68 270.59 48.71 L 270.59 46.01 L 287.46 46.01 C 288.18 47.61 289.63 48.9 291.77 49 C 294.77 49 296.73 46.51 296.73 43.82 C 296.73 41.06 294.59 38.72 291.81 38.72 C 289.85 38.72 288.11 40.11 287.48 41.73 L 270.59 41.73 L 270.59 24.99 C 270.59 23.08 271.99 21.71 273.7 21.71 L 296.16 21.71 C 297.49 21.71 299.16 22.87 299.16 24.99 L 299.16 27.58 L 282.27 27.58 C 281.57 25.94 279.99 24.59 277.8 24.59 C 275.48 24.59 273 26.57 273 29.78 C 273 32.55 275.23 34.87 277.83 34.87 C 279.79 34.87 281.5 33.65 282.27 31.86 L 299.16 31.86 L 299.16 48.85 C 299.16 50.2 298.15 52.01 295.99 52.01 Z M 282.27 76.99 C 281.78 78.18 280.33 80 277.76 80 C 275.73 80 273 78.21 273 74.8 C 273 71.91 275.28 69.7 277.85 69.7 C 280.1 69.7 281.73 71.32 282.27 72.71 L 299.14 72.71 L 299.14 76.99 Z M 270.59 91.13 L 270.59 86.84 L 287.46 86.84 C 288.31 84.9 290.1 83.83 291.95 83.85 C 294.52 83.85 296.71 86.12 296.71 88.99 C 296.71 92.17 294.25 94.13 291.9 94.13 C 289.81 94.13 288.18 92.84 287.46 91.13 Z" fill="#ffffff" stroke="none" pointer-events="all" style="fill: light-dark(rgb(255, 255, 255), rgb(18, 18, 18));"/></g></g><g data-cell-id="jhy7sgEvdCRnJ9I7-apZ-4"><g transform="translate(0.5,0.5)"><path d="M 155 43.5 L 185 43.5 L 185 25.5 L 220 55.5 L 185 85.5 L 185 67.5 L 155 67.5 L 155 85.5 L 120 55.5 L 155 25.5 Z" fill="#3a8df1" stroke="none" pointer-events="all" style="fill: light-dark(rgb(58, 141, 241), rgb(237, 237, 237));"/></g></g></g></g></g></svg>